<svg width="100" height="100" viewBox="0 0 100 100" fill="none" xmlns="http://www.w3.org/2000/svg">
<path d="M49.5 14C69.1061 14 85 29.8939 85 49.5C85 65.4508 74.4801 78.9448 60 83.4219C57.1379 84.3068 54.1209 84.839 51 84.9688V85H32.4736C33.405 84.0449 35.4829 83.4104 37.0449 81.9336C41.5093 77.7126 41.8921 72.5663 41.9951 67H50C50.3356 67 50.669 66.9908 51 66.9727C60.476 66.4538 68 58.6056 68 49C68 39.0589 59.9411 31 50 31C40.5368 31 32.7786 38.3027 32.0547 47.5801C32.0438 47.7195 32.035 47.8597 32.0273 48C32.0092 48.331 32 48.6644 32 49V65.6543C32.0126 65.9346 32.0186 66.2166 32.0186 66.5C32.0186 66.6672 32.0171 66.8339 32.0127 67C32.0096 67.1155 32.0052 67.2307 32 67.3457C31.8224 71.296 30.4071 74.9241 28.1328 77.8516C24.9061 82.0048 19.9501 84.7481 14.3457 85C14.2307 85.0052 14.1155 85.0096 14 85.0127V49.5C14 48.9975 14.0106 48.4974 14.0312 48V47.9883C14.1458 45.2537 14.5704 42.5992 15.2695 40.0586C15.3672 39.7037 15.4698 39.3504 15.5781 39C20.0552 24.5199 33.5492 14 49.5 14Z" fill="url(#paint0_linear_92_218)"/>
<defs>
<linearGradient id="paint0_linear_92_218" x1="49.4975" y1="7.30789" x2="11.1524" y2="91.1483" gradientUnits="userSpaceOnUse">
<stop stop-color="#E2A528"/>
<stop offset="1" stop-color="#CA4B32"/>
</linearGradient>
</defs>
</svg>
