<svg width="400" height="100" viewBox="0 0 400 100" fill="none" xmlns="http://www.w3.org/2000/svg">
<path d="M38.5 14C58.1061 14 74 29.8939 74 49.5C74 65.4508 63.4801 78.9448 49 83.4219C46.1379 84.3068 43.1209 84.839 40 84.9688V85H21.4736C22.405 84.0449 24.4829 83.4104 26.0449 81.9336C30.5093 77.7126 30.8921 72.5663 30.9951 67H39C39.3356 67 39.669 66.9908 40 66.9727C49.476 66.4538 57 58.6056 57 49C57 39.0589 48.9411 31 39 31C29.5368 31 21.7786 38.3027 21.0547 47.5801C21.0438 47.7195 21.035 47.8597 21.0273 48C21.0092 48.331 21 48.6644 21 49V65.6543C21.0126 65.9346 21.0186 66.2166 21.0186 66.5C21.0186 66.6672 21.0171 66.8339 21.0127 67C21.0096 67.1155 21.0052 67.2307 21 67.3457C20.8224 71.296 19.4071 74.9241 17.1328 77.8516C13.9061 82.0048 8.95012 84.7481 3.3457 85C3.23074 85.0052 3.1155 85.0096 3 85.0127V49.5C3 48.9975 3.01057 48.4974 3.03125 48V47.9883C3.14581 45.2537 3.57036 42.5992 4.26953 40.0586C4.36722 39.7037 4.46979 39.3504 4.57812 39C9.0552 24.5199 22.5492 14 38.5 14Z" fill="url(#paint0_linear_92_209)"/>
<path d="M99.0467 65.4264C96.3804 65.4264 93.9743 64.8579 91.8283 63.7207C89.7147 62.5836 88.0402 60.9591 86.8046 58.8472C85.6015 56.7354 85 54.2662 85 51.4396C85 48.6454 85.6178 46.1924 86.8534 44.0806C88.089 41.9363 89.7798 40.2955 91.9258 39.1584C94.0718 38.0212 96.478 37.4527 99.1442 37.4527C101.811 37.4527 104.217 38.0212 106.363 39.1584C108.509 40.2955 110.2 41.9363 111.435 44.0806C112.671 46.1924 113.288 48.6454 113.288 51.4396C113.288 54.2337 112.654 56.7029 111.386 58.8472C110.151 60.9591 108.444 62.5836 106.265 63.7207C104.119 64.8579 101.713 65.4264 99.0467 65.4264ZM99.0467 58.2137C100.64 58.2137 101.989 57.6289 103.095 56.4592C104.233 55.2896 104.802 53.6164 104.802 51.4396C104.802 49.2627 104.249 47.5895 103.144 46.4199C102.071 45.2502 100.738 44.6654 99.1442 44.6654C97.5185 44.6654 96.1691 45.2502 95.0961 46.4199C94.0231 47.557 93.4865 49.2302 93.4865 51.4396C93.4865 53.6164 94.0068 55.2896 95.0473 56.4592C96.1203 57.6289 97.4534 58.2137 99.0467 58.2137Z" fill="white"/>
<path d="M116.055 51.4396C116.055 48.6129 116.624 46.1437 117.762 44.0319C118.932 41.92 120.542 40.2955 122.59 39.1584C124.671 38.0212 127.045 37.4527 129.711 37.4527C133.125 37.4527 135.971 38.3461 138.247 40.1331C140.555 41.92 142.067 44.438 142.783 47.687H133.906C133.158 45.6076 131.711 44.5679 129.565 44.5679C128.037 44.5679 126.817 45.169 125.907 46.3711C124.997 47.5408 124.541 49.2302 124.541 51.4396C124.541 53.6489 124.997 55.3546 125.907 56.5567C126.817 57.7263 128.037 58.3112 129.565 58.3112C131.711 58.3112 133.158 57.2715 133.906 55.1921H142.783C142.067 58.3761 140.555 60.8779 138.247 62.6973C135.938 64.5167 133.093 65.4264 129.711 65.4264C127.045 65.4264 124.671 64.8579 122.59 63.7207C120.542 62.5836 118.932 60.9591 117.762 58.8472C116.624 56.7354 116.055 54.2662 116.055 51.4396Z" fill="white"/>
<path d="M145.586 51.4396C145.586 48.6129 146.155 46.1437 147.293 44.0319C148.463 41.92 150.073 40.2955 152.121 39.1584C154.202 38.0212 156.576 37.4527 159.242 37.4527C162.656 37.4527 165.501 38.3461 167.777 40.1331C170.086 41.92 171.598 44.438 172.313 47.687H163.437C162.689 45.6076 161.242 44.5679 159.096 44.5679C157.567 44.5679 156.348 45.169 155.438 46.3711C154.527 47.5408 154.072 49.2302 154.072 51.4396C154.072 53.6489 154.527 55.3546 155.438 56.5567C156.348 57.7263 157.567 58.3112 159.096 58.3112C161.242 58.3112 162.689 57.2715 163.437 55.1921H172.313C171.598 58.3761 170.086 60.8779 167.777 62.6973C165.469 64.5167 162.624 65.4264 159.242 65.4264C156.576 65.4264 154.202 64.8579 152.121 63.7207C150.073 62.5836 148.463 60.9591 147.293 58.8472C146.155 56.7354 145.586 54.2662 145.586 51.4396Z" fill="white"/>
<path d="M175.116 51.3908C175.116 48.5967 175.636 46.1437 176.677 44.0319C177.75 41.92 179.197 40.2955 181.018 39.1584C182.839 38.0212 184.871 37.4527 187.114 37.4527C189.033 37.4527 190.707 37.8425 192.138 38.6223C193.601 39.4021 194.723 40.4255 195.503 41.6926V37.8426H203.844V65.0366H195.503V61.1865C194.691 62.4536 193.553 63.477 192.089 64.2568C190.659 65.0366 188.984 65.4264 187.066 65.4264C184.855 65.4264 182.839 64.8579 181.018 63.7207C179.197 62.5511 177.75 60.9103 176.677 58.7985C175.636 56.6542 175.116 54.1849 175.116 51.3908ZM195.503 51.4396C195.503 49.3602 194.918 47.7195 193.748 46.5173C192.61 45.3152 191.211 44.7142 189.553 44.7142C187.895 44.7142 186.48 45.3152 185.31 46.5173C184.172 47.687 183.603 49.3115 183.603 51.3908C183.603 53.4702 184.172 55.1272 185.31 56.3618C186.48 57.5639 187.895 58.165 189.553 58.165C191.211 58.165 192.61 57.5639 193.748 56.3618C194.918 55.1596 195.503 53.5189 195.503 51.4396Z" fill="white"/>
<path d="M220.949 65.4264C218.575 65.4264 216.462 65.0203 214.608 64.2081C212.755 63.3958 211.292 62.2912 210.219 60.8941C209.146 59.4645 208.544 57.8725 208.414 56.1181H216.657C216.754 57.0603 217.193 57.8238 217.974 58.4086C218.754 58.9934 219.713 59.2859 220.851 59.2859C221.892 59.2859 222.689 59.0909 223.241 58.701C223.827 58.2787 224.119 57.7426 224.119 57.0928C224.119 56.313 223.713 55.7445 222.9 55.3871C222.087 54.9972 220.77 54.5748 218.949 54.12C216.998 53.6651 215.373 53.194 214.072 52.7067C212.771 52.1868 211.65 51.3908 210.707 50.3187C209.764 49.214 209.292 47.7357 209.292 45.8838C209.292 44.3243 209.715 42.911 210.56 41.6439C211.438 40.3443 212.706 39.3208 214.365 38.5736C216.055 37.8263 218.055 37.4527 220.364 37.4527C223.778 37.4527 226.46 38.2974 228.411 39.9869C230.395 41.6764 231.533 43.9182 231.825 46.7123H224.119C223.989 45.7701 223.566 45.0228 222.851 44.4705C222.168 43.9182 221.258 43.642 220.12 43.642C219.144 43.642 218.397 43.8369 217.876 44.2268C217.356 44.5842 217.096 45.0878 217.096 45.7376C217.096 46.5173 217.502 47.1022 218.315 47.492C219.161 47.8819 220.461 48.2718 222.217 48.6617C224.233 49.1815 225.875 49.7013 227.143 50.2212C228.411 50.7085 229.517 51.5208 230.46 52.6579C231.435 53.7626 231.939 55.2571 231.972 57.1415C231.972 58.7335 231.517 60.1631 230.606 61.4302C229.728 62.6648 228.444 63.6395 226.753 64.3543C225.095 65.069 223.16 65.4264 220.949 65.4264Z" fill="white"/>
<path d="M241.269 35.0159C239.806 35.0159 238.602 34.5936 237.66 33.7488C236.749 32.8716 236.294 31.7994 236.294 30.5323C236.294 29.2327 236.749 28.1606 237.66 27.3158C238.602 26.4386 239.806 26 241.269 26C242.699 26 243.87 26.4386 244.78 27.3158C245.723 28.1606 246.195 29.2327 246.195 30.5323C246.195 31.7994 245.723 32.8716 244.78 33.7488C243.87 34.5936 242.699 35.0159 241.269 35.0159ZM245.414 37.8426V65.0366H237.074V37.8426H245.414Z" fill="white"/>
<path d="M263.847 65.4264C261.181 65.4264 258.775 64.8579 256.629 63.7207C254.515 62.5836 252.84 60.9591 251.605 58.8472C250.402 56.7354 249.8 54.2662 249.8 51.4396C249.8 48.6454 250.418 46.1924 251.654 44.0806C252.889 41.9363 254.58 40.2955 256.726 39.1584C258.872 38.0212 261.278 37.4527 263.945 37.4527C266.611 37.4527 269.017 38.0212 271.163 39.1584C273.309 40.2955 275 41.9363 276.235 44.0806C277.471 46.1924 278.089 48.6454 278.089 51.4396C278.089 54.2337 277.455 56.7029 276.187 58.8472C274.951 60.9591 273.244 62.5836 271.065 63.7207C268.919 64.8579 266.513 65.4264 263.847 65.4264ZM263.847 58.2137C265.44 58.2137 266.79 57.6289 267.895 56.4592C269.033 55.2896 269.602 53.6164 269.602 51.4396C269.602 49.2627 269.049 47.5895 267.944 46.4199C266.871 45.2502 265.538 44.6654 263.945 44.6654C262.319 44.6654 260.969 45.2502 259.896 46.4199C258.823 47.557 258.287 49.2302 258.287 51.4396C258.287 53.6164 258.807 55.2896 259.848 56.4592C260.921 57.6289 262.254 58.2137 263.847 58.2137Z" fill="white"/>
<path d="M299.096 37.5501C302.283 37.5501 304.819 38.5898 306.705 40.6692C308.623 42.716 309.583 45.5426 309.583 49.149V65.0366H301.291V50.2699C301.291 48.4505 300.82 47.0372 299.877 46.03C298.934 45.0228 297.666 44.5192 296.072 44.5192C294.479 44.5192 293.211 45.0228 292.268 46.03C291.325 47.0372 290.854 48.4505 290.854 50.2699V65.0366H282.513V37.8426H290.854V41.4489C291.699 40.2468 292.837 39.3046 294.268 38.6223C295.698 37.9075 297.308 37.5501 299.096 37.5501Z" fill="white"/>
<path d="M323.745 41.6926C324.558 40.4255 325.68 39.4021 327.11 38.6223C328.541 37.8425 330.216 37.4527 332.134 37.4527C334.378 37.4527 336.41 38.0212 338.231 39.1584C340.052 40.2955 341.482 41.92 342.523 44.0319C343.596 46.1437 344.132 48.5967 344.132 51.3908C344.132 54.1849 343.596 56.6542 342.523 58.7985C341.482 60.9103 340.052 62.5511 338.231 63.7207C336.41 64.8579 334.378 65.4264 332.134 65.4264C330.248 65.4264 328.574 65.0366 327.11 64.2568C325.68 63.477 324.558 62.4699 323.745 61.2352V78H315.405V37.8426H323.745V41.6926ZM335.646 51.3908C335.646 49.3115 335.06 47.687 333.89 46.5173C332.752 45.3152 331.337 44.7142 329.647 44.7142C327.988 44.7142 326.574 45.3152 325.403 46.5173C324.265 47.7195 323.696 49.3602 323.696 51.4396C323.696 53.5189 324.265 55.1596 325.403 56.3618C326.574 57.5639 327.988 58.165 329.647 58.165C331.305 58.165 332.719 57.5639 333.89 56.3618C335.06 55.1272 335.646 53.4702 335.646 51.3908Z" fill="url(#paint1_linear_92_209)"/>
<path d="M356.848 42.3749C357.823 40.8804 359.043 39.7107 360.506 38.866C361.969 37.9888 363.595 37.5501 365.383 37.5501V46.3711H363.091C361.01 46.3711 359.449 46.826 358.409 47.7357C357.368 48.6129 356.848 50.1724 356.848 52.4142V65.0366H348.508V37.8426H356.848V42.3749Z" fill="url(#paint2_linear_92_209)"/>
<path d="M381.758 65.4264C379.092 65.4264 376.686 64.8579 374.54 63.7207C372.426 62.5836 370.752 60.9591 369.516 58.8472C368.313 56.7354 367.712 54.2662 367.712 51.4396C367.712 48.6454 368.329 46.1924 369.565 44.0806C370.8 41.9363 372.491 40.2955 374.637 39.1584C376.783 38.0212 379.189 37.4527 381.856 37.4527C384.522 37.4527 386.928 38.0212 389.074 39.1584C391.22 40.2955 392.911 41.9363 394.147 44.0806C395.382 46.1924 396 48.6454 396 51.4396C396 54.2337 395.366 56.7029 394.098 58.8472C392.862 60.9591 391.155 62.5836 388.977 63.7207C386.831 64.8579 384.424 65.4264 381.758 65.4264ZM381.758 58.2137C383.351 58.2137 384.701 57.6289 385.806 56.4592C386.944 55.2896 387.513 53.6164 387.513 51.4396C387.513 49.2627 386.961 47.5895 385.855 46.4199C384.782 45.2502 383.449 44.6654 381.856 44.6654C380.23 44.6654 378.881 45.2502 377.808 46.4199C376.735 47.557 376.198 49.2302 376.198 51.4396C376.198 53.6164 376.718 55.2896 377.759 56.4592C378.832 57.6289 380.165 58.2137 381.758 58.2137Z" fill="url(#paint3_linear_92_209)"/>
<defs>
<linearGradient id="paint0_linear_92_209" x1="38.4975" y1="7.30789" x2="0.152376" y2="91.1483" gradientUnits="userSpaceOnUse">
<stop stop-color="#E2A528"/>
<stop offset="1" stop-color="#CA4B32"/>
</linearGradient>
<linearGradient id="paint1_linear_92_209" x1="312.381" y1="39.6402" x2="323.474" y2="78.2266" gradientUnits="userSpaceOnUse">
<stop stop-color="#E2A528"/>
<stop offset="1" stop-color="#CA4B32"/>
</linearGradient>
<linearGradient id="paint2_linear_92_209" x1="312.381" y1="39.6402" x2="323.474" y2="78.2266" gradientUnits="userSpaceOnUse">
<stop stop-color="#E2A528"/>
<stop offset="1" stop-color="#CA4B32"/>
</linearGradient>
<linearGradient id="paint3_linear_92_209" x1="312.381" y1="39.6402" x2="323.474" y2="78.2266" gradientUnits="userSpaceOnUse">
<stop stop-color="#E2A528"/>
<stop offset="1" stop-color="#CA4B32"/>
</linearGradient>
</defs>
</svg>
